<?xml version="1.0" encoding="UTF-8" standalone="no"?>
<!-- Created with Inkscape (http://www.inkscape.org/) -->

<svg
   xmlns:dc="http://purl.org/dc/elements/1.1/"
   xmlns:cc="http://creativecommons.org/ns#"
   xmlns:rdf="http://www.w3.org/1999/02/22-rdf-syntax-ns#"
   xmlns:svg="http://www.w3.org/2000/svg"
   xmlns="http://www.w3.org/2000/svg"
   xmlns:sodipodi="http://sodipodi.sourceforge.net/DTD/sodipodi-0.dtd"
   xmlns:inkscape="http://www.inkscape.org/namespaces/inkscape"
   width="67.730003"
   height="107.37"
   id="svg4532"
   version="1.1"
   inkscape:version="0.48.1 "
   sodipodi:docname="Neues Dokument 5">
  <defs
     id="defs4534" />
  <sodipodi:namedview
     id="base"
     pagecolor="#ffffff"
     bordercolor="#666666"
     borderopacity="1.0"
     inkscape:pageopacity="0.0"
     inkscape:pageshadow="2"
     inkscape:zoom="4.374919"
     inkscape:cx="33.865"
     inkscape:cy="53.685003"
     inkscape:document-units="px"
     inkscape:current-layer="layer1"
     showgrid="false"
     fit-margin-top="0"
     fit-margin-left="0"
     fit-margin-right="0"
     fit-margin-bottom="0"
     inkscape:window-width="1024"
     inkscape:window-height="678"
     inkscape:window-x="-4"
     inkscape:window-y="-4"
     inkscape:window-maximized="1" />
  <metadata
     id="metadata4537">
    <rdf:RDF>
      <cc:Work
         rdf:about="">
        <dc:format>image/svg+xml</dc:format>
        <dc:type
           rdf:resource="http://purl.org/dc/dcmitype/StillImage" />
        <dc:title></dc:title>
      </cc:Work>
    </rdf:RDF>
  </metadata>
  <g
     inkscape:label="Ebene 1"
     inkscape:groupmode="layer"
     id="layer1"
     transform="translate(-216.52146,-474.57819)">
    <g
       id="g1202"
       transform="matrix(1.25,0,0,-1.25,260.09496,550.33826)">
      <path
         inkscape:connector-curvature="0"
         d="m 0,0 c 0,-0.974 0.554,-1.594 1.556,-1.594 0.382,0 0.677,0.038 0.945,0.115 L 2.462,-0.468 C 2.329,-0.554 2.109,-0.602 1.88,-0.602 1.393,-0.602 1.279,-0.21 1.279,0.21 l 0,2.29 1.136,0 0,0.935 -1.136,0 0,1.393 L 0,4.418 0,3.435 l -0.944,0 0,-0.935 L 0,2.5 0,0 z m -1.64,3.388 c -0.353,0.105 -0.725,0.161 -1.24,0.161 -1.537,0 -2.377,-1.125 -2.377,-2.547 0,-1.499 0.812,-2.596 2.425,-2.596 0.524,0 0.906,0.048 1.278,0.162 l -0.057,1.06 c -0.219,-0.096 -0.62,-0.23 -0.983,-0.23 -0.897,0 -1.326,0.697 -1.326,1.604 0,0.926 0.505,1.555 1.298,1.555 0.391,0 0.639,-0.076 0.867,-0.181 l 0.115,1.012 z m -4.903,0.047 -1.278,0 0,-2.405 c 0,-0.629 -0.201,-1.632 -1.126,-1.632 -0.821,0 -0.831,0.812 -0.831,1.413 l 0,2.624 -1.278,0 0,-3.101 c 0,-1.107 0.505,-1.928 1.67,-1.928 0.667,0 1.221,0.306 1.612,0.783 l 0.02,0 0,-0.668 1.211,0 0,4.914 z m -7.355,-4.914 1.24,0 0,7.157 -1.278,0 0,-2.815 -0.02,0 c -0.382,0.467 -0.83,0.686 -1.469,0.686 -1.508,0 -2.061,-1.202 -2.061,-2.557 0,-1.346 0.553,-2.586 2.061,-2.586 0.601,0 1.126,0.191 1.508,0.668 l 0.019,0 0,-0.553 z m -2.253,2.471 c 0,0.658 0.229,1.565 1.06,1.565 0.821,0 1.145,-0.877 1.145,-1.565 0,-0.696 -0.277,-1.594 -1.126,-1.594 -0.84,0 -1.079,0.917 -1.079,1.594 m -6.114,0.105 c 0,0.735 0.4,1.46 1.23,1.46 0.84,0 1.241,-0.706 1.241,-1.46 0,-0.821 -0.257,-1.699 -1.241,-1.699 -0.973,0 -1.23,0.888 -1.23,1.699 m -1.336,-0.153 c 0,-1.412 0.944,-2.538 2.566,-2.538 1.632,0 2.577,1.126 2.577,2.538 0,1.623 -1.116,2.605 -2.577,2.605 -1.45,0 -2.566,-0.982 -2.566,-2.605 m -3.654,-2.423 1.279,0 0,1.803 c 0,0.706 0,2.004 1.04,2.004 0.229,0 0.458,-0.038 0.572,-0.105 l 0,1.289 c -0.133,0.037 -0.267,0.037 -0.391,0.037 -0.763,0 -1.288,-0.772 -1.345,-1.23 l -0.019,0 0,1.116 -1.136,0 0,-4.914 z m -3.71,4.036 c 0.83,0 1.059,-0.907 1.059,-1.565 0,-0.677 -0.239,-1.594 -1.078,-1.594 -0.85,0 -1.127,0.898 -1.127,1.594 0,0.688 0.325,1.565 1.146,1.565 m -2.434,-6.04 1.279,0 0,2.567 0.019,0 c 0.448,-0.544 0.897,-0.678 1.441,-0.678 1.536,0 2.09,1.24 2.09,2.586 0,1.355 -0.554,2.557 -2.061,2.557 -0.755,0 -1.241,-0.333 -1.527,-0.81 l -0.019,0 0,0.696 -1.222,0 0,-6.918 z"
         style="fill:#ed1c24;fill-opacity:1;fill-rule:nonzero;stroke:none"
         id="path1204" />
    </g>
    <g
       id="g1206"
       transform="matrix(1.25,0,0,-1.25,249.94709,566.49763)">
      <path
         inkscape:connector-curvature="0"
         d="m 0,0 1.279,0 0,2.405 c 0,0.63 0.2,1.631 1.126,1.631 0.82,0 0.83,-0.81 0.83,-1.411 l 0,-2.625 1.279,0 0,3.102 c 0,1.106 -0.506,1.927 -1.67,1.927 -0.669,0 -1.212,-0.219 -1.613,-0.782 l -0.019,0 0,0.668 L 0,4.915 0,0 z m -2.823,4.915 0,-0.668 -0.019,0 C -3.195,4.81 -3.7,5.029 -4.35,5.029 -5.819,5.029 -6.43,3.664 -6.43,2.481 -6.43,1.164 -5.876,0 -4.426,0 c 0.716,0 1.288,0.363 1.527,0.783 l 0.019,0 c 0,-0.85 -0.067,-1.909 -1.479,-1.909 -0.401,0 -1.041,0.22 -1.432,0.43 l -0.105,-1.088 c 0.611,-0.258 1.193,-0.334 1.699,-0.334 2.062,0 2.596,1.259 2.596,2.595 l 0,4.438 -1.222,0 z M -4.006,0.993 c -0.735,0 -1.088,0.821 -1.088,1.488 0,0.754 0.277,1.555 1.145,1.555 0.745,0 1.069,-0.686 1.069,-1.526 0,-0.82 -0.324,-1.517 -1.126,-1.517 m -5.019,4.819 1.279,0 0,1.222 -1.279,0 0,-1.222 z m 0,-5.812 1.279,0 0,4.915 -1.279,0 0,-4.915 z m -1.544,4.848 c -0.401,0.086 -0.792,0.181 -1.394,0.181 -1.001,0 -1.927,-0.467 -1.927,-1.527 0,-1.774 2.224,-1.116 2.224,-2.079 0,-0.478 -0.516,-0.602 -0.84,-0.602 -0.439,0 -0.859,0.124 -1.26,0.324 l -0.077,-1.049 c 0.468,-0.125 0.965,-0.21 1.451,-0.21 1.04,0 2.061,0.457 2.061,1.603 0,1.775 -2.223,1.279 -2.223,2.061 0,0.42 0.41,0.544 0.754,0.544 0.468,0 0.754,-0.076 1.145,-0.21 l 0.086,0.964 z m -4.655,-3.531 c -0.477,-0.267 -1.012,-0.496 -1.632,-0.496 -0.792,0 -1.346,0.449 -1.403,1.241 l 3.397,0 c 0,1.717 -0.515,2.967 -2.338,2.967 -1.527,0 -2.281,-1.174 -2.281,-2.595 0,-1.613 0.945,-2.548 2.568,-2.548 0.686,0 1.221,0.133 1.689,0.391 l 0,1.04 z m -3.035,1.622 c 0.057,0.659 0.42,1.155 1.136,1.155 0.715,0 1.001,-0.534 1.04,-1.155 l -2.176,0 z M -22.007,0 l 1.24,0 0,7.158 -1.279,0 0,-2.816 -0.018,0 c -0.383,0.468 -0.831,0.687 -1.47,0.687 -1.508,0 -2.061,-1.202 -2.061,-2.557 0,-1.346 0.553,-2.586 2.061,-2.586 0.601,0 1.126,0.191 1.507,0.668 l 0.02,0 0,-0.554 z m -2.253,2.472 c 0,0.658 0.229,1.564 1.06,1.564 0.82,0 1.145,-0.877 1.145,-1.564 0,-0.696 -0.277,-1.594 -1.126,-1.594 -0.84,0 -1.079,0.917 -1.079,1.594"
         style="fill:#ed1c24;fill-opacity:1;fill-rule:nonzero;stroke:none"
         id="path1208" />
    </g>
    <g
       id="g1210"
       transform="matrix(1.25,0,0,-1.25,252.36871,580.80738)">
      <path
         inkscape:connector-curvature="0"
         d="m 0,0 1.241,0 0,7.157 -1.278,0 0,-2.815 -0.02,0 c -0.382,0.468 -0.83,0.687 -1.469,0.687 -1.508,0 -2.062,-1.202 -2.062,-2.558 0,-1.345 0.554,-2.585 2.062,-2.585 0.601,0 1.125,0.19 1.507,0.667 L 0,0.553 0,0 z m -2.252,2.471 c 0,0.659 0.23,1.565 1.06,1.565 0.82,0 1.144,-0.877 1.144,-1.565 0,-0.696 -0.276,-1.593 -1.125,-1.593 -0.84,0 -1.079,0.916 -1.079,1.593 M -7.241,0 l 1.279,0 0,1.804 c 0,0.706 0,2.004 1.039,2.004 0.23,0 0.459,-0.039 0.573,-0.105 l 0,1.288 c -0.133,0.038 -0.267,0.038 -0.391,0.038 -0.764,0 -1.288,-0.773 -1.345,-1.231 l -0.02,0 0,1.116 -1.135,0 0,-4.914 z m -4.713,1.422 c 0,0.754 0.849,0.849 1.422,0.849 l 0.554,0 c 0,-0.382 -0.058,-0.735 -0.268,-1.011 -0.2,-0.268 -0.506,-0.439 -0.897,-0.439 -0.458,0 -0.811,0.181 -0.811,0.601 m -0.649,2.137 c 0.43,0.325 0.974,0.535 1.518,0.535 0.754,0 1.107,-0.267 1.107,-1.059 l -0.707,0 c -0.534,0 -1.164,-0.048 -1.65,-0.286 -0.487,-0.239 -0.84,-0.669 -0.84,-1.403 0,-0.936 0.849,-1.46 1.717,-1.46 0.582,0 1.222,0.305 1.518,0.849 l 0.019,0 C -9.911,0.582 -9.911,0.258 -9.864,0 l 1.126,0 C -8.767,0.382 -8.786,0.725 -8.795,1.097 -8.804,1.46 -8.814,1.832 -8.814,2.329 l 0,0.629 c 0,1.451 -0.621,2.071 -2.118,2.071 -0.545,0 -1.213,-0.143 -1.709,-0.372 l 0.038,-1.098 z M -20.521,0 l 1.461,0 1.05,3.741 0.018,0 1.069,-3.741 1.508,0 1.508,4.914 -1.222,0 -1.021,-3.635 -0.019,0 -1.069,3.635 -1.488,0 -0.993,-3.635 -0.019,0 -1.088,3.635 -1.355,0 1.66,-4.914 z m -5.79,1.422 c 0,0.754 0.849,0.849 1.422,0.849 l 0.553,0 c 0,-0.382 -0.057,-0.735 -0.267,-1.011 -0.2,-0.268 -0.506,-0.439 -0.897,-0.439 -0.458,0 -0.811,0.181 -0.811,0.601 m -0.65,2.137 c 0.43,0.325 0.974,0.535 1.518,0.535 0.754,0 1.107,-0.267 1.107,-1.059 l -0.706,0 c -0.535,0 -1.164,-0.048 -1.651,-0.286 -0.487,-0.239 -0.84,-0.669 -0.84,-1.403 0,-0.936 0.85,-1.46 1.718,-1.46 0.582,0 1.221,0.305 1.517,0.849 l 0.019,0 c 0.01,-0.153 0.01,-0.477 0.058,-0.735 l 1.126,0 c -0.029,0.382 -0.048,0.725 -0.058,1.097 -0.009,0.363 -0.019,0.735 -0.019,1.232 l 0,0.629 c 0,1.451 -0.62,2.071 -2.118,2.071 -0.544,0 -1.212,-0.143 -1.708,-0.372 l 0.037,-1.098 z"
         style="fill:#ed1c24;fill-opacity:1;fill-rule:nonzero;stroke:none"
         id="path1212" />
    </g>
    <path
       inkscape:connector-curvature="0"
       d="m 217.52271,475.5765 65.7275,0 0,65.7275 -65.7275,0 0,-65.7275 z"
       style="fill:#ed1c24;fill-opacity:1;fill-rule:nonzero;stroke:none"
       id="path1220" />
    <path
       inkscape:connector-curvature="0"
       d="m 231.62396,503.3465 10.98375,0 0,24.7125 -10.98375,0 0,-24.7125 z"
       style="fill:#ffffff;fill-opacity:1;fill-rule:nonzero;stroke:none"
       id="path1222" />
    <g
       id="g1224"
       transform="matrix(1.25,0,0,-1.25,230.70909,495.12387)">
      <path
         inkscape:connector-curvature="0"
         d="m 0,0 c 0,2.784 2.258,5.041 5.042,5.041 2.785,0 5.043,-2.257 5.043,-5.041 0,-2.784 -2.258,-5.041 -5.043,-5.041 C 2.258,-5.041 0,-2.784 0,0"
         style="fill:#ffffff;fill-opacity:1;fill-rule:nonzero;stroke:none"
         id="path1226" />
    </g>
    <path
       inkscape:connector-curvature="0"
       d="m 259.08146,489.61775 10.98375,0 0,10.98375 -10.98375,0 0,-10.98375 z"
       style="fill:#ffffff;fill-opacity:1;fill-rule:nonzero;stroke:none"
       id="path1228" />
    <path
       inkscape:connector-curvature="0"
       d="m 245.35396,489.61775 10.9825,0 0,38.44125 -10.9825,0 0,-38.44125 z"
       style="fill:#ffffff;fill-opacity:1;fill-rule:nonzero;stroke:none"
       id="path1230" />
    <path
       inkscape:connector-curvature="0"
       d="m 259.08146,503.3465 10.98375,0 0,10.9825 -10.98375,0 0,-10.9825 z"
       style="fill:#ffffff;fill-opacity:1;fill-rule:nonzero;stroke:none"
       id="path1232" />
  </g>
</svg>
