<?xml version="1.0" encoding="utf-8"?>
<!-- Generator: Adobe Illustrator 21.1.0, SVG Export Plug-In . SVG Version: 6.00 Build 0)  -->
<svg version="1.1" id="Layer_1" xmlns="http://www.w3.org/2000/svg" xmlns:xlink="http://www.w3.org/1999/xlink" x="0px" y="0px"
	 viewBox="0 0 1190.6 841.9" style="enable-background:new 0 0 1190.6 841.9;" xml:space="preserve">
<style type="text/css">
	.st0{fill:url(#SVGID_1_);}
	.st1{fill:url(#SVGID_2_);}
	.st2{fill:url(#SVGID_3_);}
	.st3{fill:url(#SVGID_4_);}
	.st4{fill:url(#SVGID_5_);}
	.st5{fill:#E60012;}
</style>
<g>
	<radialGradient id="SVGID_1_" cx="610.1335" cy="428.1133" r="17.5369" gradientUnits="userSpaceOnUse">
		<stop  offset="0" style="stop-color:#FFFFFF"/>
		<stop  offset="1" style="stop-color:#E60012"/>
	</radialGradient>
	<path class="st0" d="M616.5,431.4c0.1,0.9-0.2,1.7-0.8,2.9c-0.5,1-1.3,1.7-2.1,2.7c-0.8,1-1.8,1.9-2.9,2.8
		c-1.1,0.8-2.1,1.7-3.4,2.2c-1.3,0.6-2.4,1.2-3.5,1.3c-1.1,0.1-2,0.1-2.8-0.2c-0.8-0.3-1.4-0.7-1.8-1.3c-0.4-0.6-0.6-1.4-0.6-2.3
		c0-0.9,0.3-1.8,0.8-2.8c0.5-1,1.1-1.9,1.9-2.8c0.8-0.9,1.7-1.8,2.7-2.6c1-0.8,2.1-1.5,3.3-2c1.2-0.5,2.3-0.9,3.3-1.1
		c1-0.2,2-0.2,2.8,0c0.8,0.2,1.6,0.5,2.1,1C616,429.8,616.4,430.5,616.5,431.4z M612.5,434.9c0-0.4-0.2-0.8-0.4-1
		c-0.2-0.3-0.6-0.5-1-0.6c-0.4-0.1-0.9-0.1-1.4,0c-0.5,0.1-1.1,0.2-1.6,0.5c-0.6,0.3-1.1,0.6-1.6,1c-0.5,0.4-0.9,0.8-1.3,1.3
		c-0.4,0.4-0.7,0.9-0.9,1.4c-0.2,0.5-0.3,0.9-0.3,1.4c0,0.4,0.1,0.8,0.3,1.1c0.2,0.3,0.5,0.5,0.9,0.6c0.4,0.1,0.8,0.1,1.4,0.1
		c0.5-0.1,1.1-0.2,1.7-0.5c0.6-0.3,1.2-0.6,1.7-1c0.5-0.4,1-0.8,1.4-1.3c0.4-0.5,0.7-1,0.9-1.4C612.5,435.8,612.6,435.3,612.5,434.9
		z"/>
	
		<linearGradient id="SVGID_2_" gradientUnits="userSpaceOnUse" x1="2455.908" y1="-1735.6187" x2="2455.908" y2="-1712.783" gradientTransform="matrix(0.7969 0 0 0.7974 -1375.9034 1782.399)">
		<stop  offset="0" style="stop-color:#E60012"/>
		<stop  offset="1" style="stop-color:#FFFFFF"/>
	</linearGradient>
	<path class="st1" d="M584.1,400.5c-3.3,2-5.2,3.1-7.6,6.1c-1,1.2-1.5,1.9-2.2,3.2c-0.3,0.7-0.7,1.8-0.7,1.8l-0.2,1.3l-0.3,1.7
		l-0.1,1.5l0,0.5c0-0.1,0-0.3,0-0.4c0-0.1,0-0.3,0.1-0.4c0-0.1,0-0.3,0.1-0.4c0-0.1,0.1-0.3,0.1-0.4c0.4-1.5,1.1-3.1,2.1-4.9
		c1.2-2,2.1-3,3.7-4.5c1.6-1.6,2.7-2.7,4.6-4.2c1.2-0.9,4.1-2.7,5.8-2.9c0.7-0.1-1.6,0.1-2.4,0.5
		C585.8,399.5,585.2,399.8,584.1,400.5z"/>
	
		<radialGradient id="SVGID_3_" cx="2475.1995" cy="-1736.7814" r="50.7123" gradientTransform="matrix(0.7969 0 0 0.7974 -1375.9034 1782.399)" gradientUnits="userSpaceOnUse">
		<stop  offset="0" style="stop-color:#FFFFFF"/>
		<stop  offset="1" style="stop-color:#E60012"/>
	</radialGradient>
	<path class="st2" d="M607.9,401.8l-1.2-1.3l-1.3-1.2l-0.7-0.5l-1.5-0.6c-0.8-0.3-1.8-0.6-2.9-0.8c-1-0.1-2.7-0.4-4-0.1
		c-1.3,0.3-2.1,0.6-3.6,1.2c-1.4,0.6-2.9,1.4-4.5,2.3c-2.1,1.3-4.2,2.9-6.1,4.5c-1.9,1.7-3.6,3.4-5.1,5.3c-1.5,1.8-2.8,3.7-3.8,5.6
		c-1,1.9-1.4,3.7-1.7,5.5c-0.1,0.3,0,0.7,0,1c0,0.3,0.3,2.3,0.6,3.7c0.1,0.6,0.2,1,0.4,1.6c0.2,0.7,0.7,1.7,0.7,1.7l0.3,0.4l0.6,0.9
		c-0.2-0.3-0.4-0.7-0.5-1.1c-0.1-0.4-0.2-0.8-0.3-1.2c-0.1-0.4-0.1-0.9-0.1-1.4c0-0.5,0-1,0.1-1.5c0.3-1.8,1-3.8,2-5.8
		c1-2,2.4-4,4-5.9c1.6-1.9,3.4-3.8,5.4-5.5c2-1.7,4.1-3.3,6.4-4.7c1.8-1.1,3.6-2,5.3-2.6c1.7-0.7,3.3-1.1,4.8-1.3
		c1.5-0.2,2.8-0.1,4,0.1C606.2,400.5,607.2,401,607.9,401.8"/>
	
		<radialGradient id="SVGID_4_" cx="2483.7244" cy="-1730.4447" r="54.1132" gradientTransform="matrix(0.7969 0 0 0.7974 -1375.9034 1782.399)" gradientUnits="userSpaceOnUse">
		<stop  offset="0" style="stop-color:#FFFFFF"/>
		<stop  offset="1" style="stop-color:#E60012"/>
	</radialGradient>
	<path class="st3" d="M616,411.7l-2.1-5.4l-0.5-1.2c-0.7-1.2-1.9-2-3.2-2.5c-1.3-0.5-3.7-0.5-5.4-0.3c-1.7,0.2-3.6,0.7-5.6,1.5
		c-2,0.8-4.1,1.9-6.2,3.3c-2.4,1.5-4.6,3.3-6.6,5.2c-2,1.9-3.8,4-5.4,6.1c-1.6,2.1-2.9,4.3-3.8,6.4c-1,2.2-1.5,4.3-1.7,6.2
		c0,0.7,0,1.4,0.1,2.1c0.1,0.6,0.3,1.2,0.5,1.8c0.2,0.5,0.5,1,0.9,1.5c0.4,0.4,0.8,0.8,1.2,1.1l1.6,1l1.5,0.8l1.7,0.8l1.5,0.5
		c-0.7-0.2-1.4-0.6-2-1c-0.6-0.4-1-0.9-1.4-1.5c-0.4-0.6-0.7-1.3-0.8-2c-0.2-0.7-0.3-1.6-0.2-2.5c0.1-1.8,0.6-3.8,1.4-5.9
		c0.8-2,2-4,3.5-6c1.4-2,3.1-3.9,5-5.7c1.9-1.8,4-3.4,6.2-4.9c2.2-1.4,4.4-2.5,6.4-3.2c2.1-0.7,4.8-1.2,6.5-1.2
		c1.8,0,3.3,0.4,4.5,1.2c1.2,0.8,1.5,2.2,1.9,3.8L616,411.7z"/>
	
		<radialGradient id="SVGID_5_" cx="2490.3123" cy="-1716.6526" r="46.1639" gradientTransform="matrix(0.7969 0 0 0.7974 -1375.9034 1782.399)" gradientUnits="userSpaceOnUse">
		<stop  offset="0" style="stop-color:#FFFFFF"/>
		<stop  offset="1" style="stop-color:#E60012"/>
	</radialGradient>
	<path class="st4" d="M617.6,423c0.1-0.4,1-0.7,1.1-1.1c0.1-0.4,0.2-0.8,0.3-1.2c0.1-0.4,0.3-2.7,0.3-3.1c-0.1-0.2-0.1-0.5-0.2-0.7
		c-0.6-1.2-1.2-1.6-2.3-2.3c-1.2-0.8-3.4-1.3-5.1-1.3c-1.7,0-3.6,0.3-5.6,1c-2,0.7-4.1,1.7-6.3,3c-2.2,1.3-4.2,2.9-6,4.6
		c-1.8,1.7-3.4,3.5-4.8,5.4c-1.4,1.9-2.4,3.8-3.2,5.7c-0.8,1.9-1.2,3.8-1.2,5.5c0,1.1,0.2,2,0.5,2.8c0.3,0.8,0.8,1.5,1.5,2.1
		c0.7,0.6,1.4,1,2.4,1.2c1,0.2,1.9,0.4,3.1,0.4l0.3,0l1.8-0.1l1.8-0.2l0.9-0.2l1.6-0.4l1.6-0.4l0.4-0.1l1.4-0.5l0.3-0.1
		c-1.6,0.7-3.2,1.1-4.6,1.2c-1.4,0.1-2.6,0-3.6-0.4c-1-0.4-1.8-1-2.4-1.8c-0.6-0.8-0.9-1.8-1-3c-0.1-1.4,0.2-2.8,0.8-4.4
		c0.6-1.5,1.4-3.1,2.5-4.6c1.1-1.5,2.4-3,3.8-4.3c1.4-1.4,3.1-2.6,4.8-3.7c1.7-1.1,3.5-1.8,5.1-2.3c1.6-0.5,3.1-0.7,4.5-0.7
		c1.4,0.1,2.5,0.4,3.5,1.1C616.7,420.7,617.3,421.7,617.6,423"/>
	<path class="st5" d="M597.8,400.2c-0.2,0.8-0.8,1.6-1.5,2.4c-0.8,0.9-1.8,1.7-2.9,2.5c-1.2,0.8-2.5,1.6-3.9,2.3
		c-1.4,0.7-2.9,1.2-4.4,1.7c-1.5,0.4-2.8,0.6-4,0.7c-1.1,0-2.1-0.1-2.8-0.4c-0.7-0.3-1.2-0.7-1.4-1.3c-0.2-0.5-0.1-1.2,0.2-2
		c0.1-0.2,0.2-0.5,0.4-0.7c0.2-0.2,0.3-0.5,0.5-0.7c0.2-0.2,0.4-0.5,0.6-0.7c0.2-0.2,0.5-0.5,0.7-0.7l0.7-0.6l0.7-0.6l0.7-0.5
		l0.7-0.5l0.7-0.4l0.6-0.4l0.6-0.4c0,0-1.3,1-1.9,1.8c-0.4,0.4-0.6,0.8-0.8,1.2c-0.2,0.4-0.2,0.7-0.1,1c0.1,0.3,0.4,0.5,0.7,0.6
		c0.4,0.1,0.8,0.2,1.4,0.1c0.6,0,1.2-0.2,2-0.4c0.7-0.2,1.5-0.5,2.1-0.8c0.7-0.3,1.3-0.7,1.9-1.1c0.6-0.4,1.1-0.8,1.5-1.2
		c0.4-0.4,0.7-0.8,0.8-1.2c0.1-0.4,0.1-0.7,0-0.9c-0.1-0.2-0.4-0.4-0.8-0.5c-0.4-0.1-0.8-0.1-1.4,0c-0.5,0.1-1.2,0.1-1.9,0.4
		c-0.5,0.1-0.7,0.2-1.1,0.4c1.3-0.7,2.1-1,3.5-1.5c0.9-0.3,1.5-0.5,2.4-0.6c1-0.2,1.8-0.2,2.6-0.1c0.8,0.1,1.4,0.2,1.9,0.5
		c0.5,0.3,0.9,0.6,1,1C597.9,399,597.9,399.6,597.8,400.2z"/>
	<path class="st5" d="M616.2,433.1c0,0-0.3,0.9-0.6,1.4c-0.3,0.5-0.8,1.2-0.8,1.2s-0.2,0.2-0.3,0.4c-0.3,0.4-0.9,1.1-0.9,1.1
		l-0.7,0.8c-0.8,0.8-1.6,1.5-2.6,2.3c-1,0.7-2,1.4-3.1,2c-1.1,0.6-2.3,1.1-3.5,1.6c-1.2,0.5-2.4,0.8-3.7,1.1
		c-0.2,0.1-0.5,0.1-0.7,0.1c-0.2,0-0.5,0.1-0.7,0.1c-0.2,0-0.5,0.1-0.7,0.1c-0.2,0-0.5,0-0.7,0.1l-1.4,0.1l-0.3,0l-1.5,0l-1.5-0.1
		c0,0-0.3,0-0.4-0.1c-0.6-0.1-1-0.1-1.6-0.3c-0.6-0.1-1.6-0.4-1.6-0.4l-0.8-0.3l-0.2-0.1c0.6,0.2,1.3,0.4,2,0.5
		c0.7,0.1,1.5,0.2,2.3,0.2c0.8,0,1.7,0,2.6-0.1c0.9-0.1,1.9-0.2,2.9-0.5c2.3-0.5,4.5-1.2,6.6-2.2c2.1-0.9,4.1-2.1,5.9-3.4
		c1.8-1.3,3.3-2.6,4.6-4.1C615.5,434.1,615.9,433.6,616.2,433.1C616.2,433,616.2,433.1,616.2,433.1z"/>
	<path class="st5" d="M603.2,398.2l1.6,0.6l1.6,0.7l0.6,0.3c0.4,0.2,0.8,0.5,1.1,0.8c0.3,0.3,0.6,0.7,0.8,1c0.2,0.4,0.3,0.8,0.4,1.3
		c0.1,0.5,0,1-0.1,1.5c-0.3,1.4-1.1,3-2.4,4.5c-1.3,1.6-3.1,3.2-5.1,4.7c-2.1,1.5-4.5,3-7.1,4.2c-2.6,1.2-5.3,2.3-8.1,3
		c-2.5,0.6-4.7,1-6.6,1c-1.9,0-3.5-0.2-4.8-0.6c-1.2-0.5-2.2-1.1-2.7-2c-0.5-0.9-0.7-1.9-0.4-3.1l0.1-0.5l0.5-1.7l0.6-1.6l0.6-1.4
		l0.5-1.1l-0.1,0.2c0,0,0,0,0,0c-0.5,1.1-0.6,2.1-0.3,2.9c0.3,0.8,0.9,1.5,1.9,1.9c1,0.4,2.4,0.7,4,0.6c1.7,0,3.6-0.3,5.8-0.9
		c2.2-0.6,4.4-1.4,6.4-2.4c2.1-1,4-2.1,5.7-3.3c1.7-1.2,3.1-2.5,4.2-3.7c1.1-1.2,1.8-2.4,2.1-3.6c0.1-0.6,0.2-1.1,0.1-1.6
		c-0.1-0.5-0.3-0.9-0.6-1.2c-0.3-0.4-0.7-0.7-1.2-0.9c-0.3-0.2-0.7-0.3-1.1-0.4l-0.6-0.2c0.3,0,0.4,0.1,0.6,0.1c0,0,0.6,0.1,0.9,0.2
		C602.4,398,603.2,398.2,603.2,398.2z"/>
	<path class="st5" d="M613.8,405.3l1.2,1.5l1.1,1.6l0.5,0.8c0.1,0.3,0.3,0.5,0.4,0.8c0.1,0.3,0.2,0.6,0.2,0.9
		c0.1,0.3,0.1,0.6,0.1,0.9c0,0.3,0,0.7-0.1,1c-0.2,1.8-1.1,3.8-2.6,5.8c-1.5,2-3.5,4-6,5.9c-2.5,1.9-5.4,3.7-8.5,5.2
		c-3.1,1.5-6.4,2.7-9.8,3.5c-2.4,0.6-4.6,0.9-6.6,0.9c-2,0.1-3.7-0.1-5.2-0.4c-1.5-0.3-2.7-0.9-3.6-1.6c-0.9-0.7-1.6-1.5-2-2.5
		l-0.4-1.1l-0.5-1.8l-0.4-1.9l-0.1-0.5l-0.1-1c0-0.1,0,0,0,0c0.1,1,0.5,1.9,1.2,2.6c0.8,0.8,1.9,1.4,3.3,1.9
		c1.4,0.4,3.2,0.6,5.2,0.6c2-0.1,4.3-0.4,6.8-1c3.1-0.8,6.3-1.9,9.2-3.3c3-1.4,5.7-3.1,8.1-4.8c2.3-1.8,4.3-3.6,5.7-5.5
		c1.4-1.8,2.3-3.6,2.6-5.3c0.1-0.5,0.1-0.9,0.1-1.3c0-0.4-0.1-0.8-0.2-1.2c-0.1-0.4-0.3-0.7-0.5-1c-0.1-0.2-0.3-0.4-0.4-0.6v0l1,1
		L613.8,405.3z"/>
	<path class="st5" d="M619.6,419.2c0.1,1.5,0.2,2.4-0.1,3.9c-0.4,2.3-1,3.7-2.3,5.5c-1.3,1.9-3.1,3.8-5.3,5.6
		c-2.2,1.8-4.8,3.4-7.6,4.7c-2.8,1.3-5.8,2.4-8.8,3.1c-1.6,0.3-3.1,0.6-4.5,0.7c-1.4,0.1-2.7,0.1-3.9,0c-1.2-0.1-2.2-0.4-3.2-0.7
		c-0.9-0.3-1.8-0.7-2.5-1.2l-1.5-1.1l-1.2-1.1c0,0-0.8-0.8-1.3-1.4c-0.3-0.4-0.8-1.1-0.8-1.1c-0.1-0.1,0,0,0,0
		c0.6,0.6,1.3,1.2,2.1,1.7c1,0.5,2.2,0.9,3.6,1.2c1.4,0.2,3,0.3,4.8,0.3c1.8-0.1,3.7-0.4,5.7-0.8c3.3-0.7,6.6-1.9,9.6-3.4
		c3.1-1.5,5.9-3.2,8.3-5.1c2.4-1.9,4.4-3.9,5.8-5.9c1.4-2,2.3-4,2.5-5.8c0-0.2,0-0.4,0-0.6c0-0.2,0-0.4,0-0.6c0-0.2,0.2,0.8,0.2,0.8
		S619.5,418.6,619.6,419.2z"/>
</g>
</svg>
